# xmcd
#
# Track frame offsets: 
#        150
#        15245
#        28087
#        44575
#        59142
#        79745
#        92045
#        107710
#        123845
#        140985
#        171292
#        191615
#        204317
#        218572
#        234592
#        251125
#        270460
#        288997
#        307552
#
# Disc length: 4332 seconds
#
# Revision: 3
# Processed by: cddbd v1.5.2PL0 Copyright (c) Steve Scherf et al.
# Submitted via: ExactAudioCopy v1.0b3
#
DISCID=0d10ea13
DTITLE=Care - Diamonds and Emeralds
DYEAR=1997
DGENRE=New Wave
TTITLE0=Diamonds And Emeralds
TTITLE1=An Evening In The Ray
TTITLE2=Chandeliers
TTITLE3=Flaming Sword
TTITLE4=Cymophane
TTITLE5=Love Crowns And Crucifies
TTITLE6=Temper Temper
TTITLE7=White Cloud
TTITLE8=Caretaking
TTITLE9=My Boyish Days (12" version )
TTITLE10=Sad Day For England
TTITLE11=Soldiers And Sailors
TTITLE12=Whatever Possessed You
TTITLE13=Such Is Life
TTITLE14=What Kind Of World
TTITLE15=Nature Prayed Upon
TTITLE16=Flaming Sword (12" version )
TTITLE17=Misericorde
TTITLE18=Besides 1 and 2
EXTD=Ian Broudie - vocals, guitars\nPaul Simpson - vocals, keyboards Y
EXTD=EAR: 1997
EXTT0=
EXTT1=
EXTT2=
EXTT3=
EXTT4=
EXTT5=
EXTT6=
EXTT7=
EXTT8=
EXTT9=
EXTT10=
EXTT11=
EXTT12=
EXTT13=
EXTT14=
EXTT15=
EXTT16=
EXTT17=
EXTT18=
PLAYORDER=
